<?xml version="1.0" standalone="no"?>
<!DOCTYPE svg PUBLIC "-//W3C//DTD SVG 20010904//EN"
 "http://www.w3.org/TR/2001/REC-SVG-20010904/DTD/svg10.dtd">
<svg version="1.0" xmlns="http://www.w3.org/2000/svg"
 width="300.000000pt" height="300.000000pt" viewBox="0 0 300.000000 300.000000"
 preserveAspectRatio="xMidYMid meet">
<metadata>
Created by potrace 1.10, written by Peter Selinger 2001-2011
</metadata>
<g transform="translate(0.000000,300.000000) scale(0.100000,-0.100000)"
fill="#000000" stroke="none">
<path d="M1327 1836 c-95 -35 -167 -117 -182 -207 -6 -33 -10 -38 -43 -44
-204 -38 -247 -311 -63 -407 l53 -28 408 0 408 0 53 28 c184 96 141 369 -63
407 -30 6 -37 12 -47 45 -23 77 -104 128 -186 117 -37 -6 -45 -3 -58 16 -42
64 -196 105 -280 73z m179 -50 c28 -13 64 -40 81 -61 27 -32 34 -35 51 -26 75
40 182 -28 182 -116 0 -31 2 -33 35 -33 135 0 222 -134 166 -255 -22 -48 -44
-69 -94 -90 -31 -13 -98 -15 -430 -15 -387 0 -393 0 -437 23 -132 66 -132 248
0 315 24 12 61 22 82 22 36 0 38 2 38 31 0 60 23 113 70 159 72 73 163 89 256
46z"/>
</g>
</svg>
